<svg xmlns="http://www.w3.org/2000/svg" viewBox="0 0 512 512">
  <path fill="#4361ee" d="M256 32c-74.2 0-135.1 53.8-147.3 124.4c-1.6 9.5 5.8 18.1 15.4 18.1h263.8c9.6 0 17-8.6 15.4-18.1C391.1 85.8 330.2 32 256 32zm-98.9 343.6c-5.2-4.9-11.9-7.6-19-7.6H124c-22.1 0-40-17.9-40-40s17.9-40 40-40h14.1c7.1 0 13.8-2.7 19-7.6l84.8-81.9c5.9-5.7 13.7-8.9 21.9-8.9c17.2 0 31.1 14 31.1 31.1v164.6c0 17.2-14 31.1-31.1 31.1c-8.2 0-16-3.2-21.9-8.9l-84.8-81.9zm246.8-7.6h-14.1c-7.1 0-13.8 2.7-19 7.6l-84.8 81.9c-5.9 5.7-13.7 8.9-21.9 8.9c-17.2 0-31.1-14-31.1-31.1V270.7c0-17.2 14-31.1 31.1-31.1c8.2 0 16 3.2 21.9 8.9l84.8 81.9c5.2 4.9 11.9 7.6 19 7.6H404c22.1 0 40 17.9 40 40s-17.9 40-40 40z"/>
</svg>
